<?xml version="1.0" encoding="utf-8"?>
<!-- Generator: Adobe Illustrator 16.0.3, SVG Export Plug-In . SVG Version: 6.00 Build 0)  -->
<!DOCTYPE svg PUBLIC "-//W3C//DTD SVG 1.1//EN" "http://www.w3.org/Graphics/SVG/1.1/DTD/svg11.dtd">
<svg version="1.1" id="圖層_1" xmlns="http://www.w3.org/2000/svg" xmlns:xlink="http://www.w3.org/1999/xlink" x="0px" y="0px"
	 width="799.371px" height="105.732px" viewBox="0.315 0 799.371 105.732" enable-background="new 0.315 0 799.371 105.732"
	 xml:space="preserve">
<g>
	<g>
		<path d="M354.662,26.627c0,0-12.575,0.806-17.759,2.878c-5.165,2.068-10.45,6.151-14.336,9.646
			c-0.343,0.287-2.472,2.886-2.614,3.134c0-5.778,0-17.496,0-17.496l-20.606,0.275l-0.075,80.59l20.923,0.027l-0.056-30.499
			c0,0,0.197-4.296,2.479-7.936c0.729-1.208,3.301-5.192,5.821-7.935c2.565-2.91,6.854-6.463,7.976-7.391
			c6.531-5.631,18.249-6.508,18.249-6.508V26.627z"/>
		<path d="M531.605,25.064c-15.755,2.313-31.297,17.105-33.67,32.878c-2.763,18.206,7.197,44.729,38.121,47.021
			c32.541,2.401,38.602-25.097,38.602-25.097H551.17c0,0-1.677,7.268-15.645,6.379c-12.56-0.8-15.004-11.862-15.004-11.862
			s37.483,0.126,55.711,0.126c0.487-11.58-0.466-21.64-4.698-29.096C565.077,34.061,551.866,22.049,531.605,25.064z M520.644,55.595
			c0,0,3.277-10.546,15.633-11.083c14.752-0.703,17.246,11.083,17.246,11.083H520.644z"/>
		<path d="M245.135,25.064c-15.755,2.313-31.29,17.105-33.663,32.878c-2.762,18.206,7.198,44.729,38.117,47.021
			c32.538,2.401,38.602-25.097,38.602-25.097h-23.484c0,0-1.676,7.268-15.649,6.379c-12.555-0.8-15.004-11.862-15.004-11.862
			s37.484,0.126,55.716,0.126c0.488-11.58-0.47-21.64-4.703-29.096C278.613,34.061,265.396,22.049,245.135,25.064z M234.177,55.595
			c0,0,3.273-10.546,15.636-11.083c14.751-0.703,17.245,11.083,17.245,11.083H234.177z"/>
		<path d="M775.733,23.497l-0.055,6.358c0,0-4.524-3.136-11.546-4.527c-48.881-9.879-71.417,57.422-23.49,77.245
			c19.159,7.885,34.454-2.352,34.454-2.352v5.483h24.273V23.497H775.733z M758.652,84.569c-28.796,3.422-30.069-36.413-7.051-39.942
			C779.148,40.398,782.015,81.774,758.652,84.569z"/>
		<path d="M0,104.922h32.101l7.83-14.091c0,0,23.511,0,32.88,0c0,4.769,0,14.091,0,14.091h28.186V2.357H57.938L0,104.922z
			 M72.811,62.641l-16.44-0.396l16.44-28.574V62.641z"/>
		<polygon points="456.713,1.617 429.039,48.818 429.039,1.567 400.468,1.452 341.354,105.193 373.724,105.193 402.037,56.374 
			402.003,105.173 429.578,105.173 458.795,55.595 458.774,105.705 487.247,105.732 486.973,1.595 		"/>
		<polygon points="189.468,1.96 147.582,76.345 147.192,1.567 119.396,1.567 119.152,104.784 163.117,104.784 220.786,1.567 		"/>
		<polygon fill="#C8252C" points="681.144,24.273 705.422,24.219 705.422,0 681.144,0.032 		"/>
		<path d="M647.5,0.032l-0.021,28.946c0,0-10.108-3.82-14.361-4.167c-51.113-4.528-63.513,63.983-18.524,78.553
			c19.91,6.354,32.886-3.143,32.886-3.143l0.049,5.483l24.341,0.027L671.727,0L647.5,0.032z M631.036,84.569
			c-28.748,3.104-30.849-35.162-7.562-39.399C651.954,39.942,654.748,81.972,631.036,84.569z"/>
		<polygon points="681.095,29.099 705.422,28.979 705.362,105.705 681.018,105.583 		"/>
	</g>
</g>
</svg>
