<?xml version="1.0" encoding="utf-8"?>
<!-- Generator: Adobe Illustrator 22.1.0, SVG Export Plug-In . SVG Version: 6.00 Build 0)  -->
<svg version="1.0" id="圖層_1" xmlns="http://www.w3.org/2000/svg" xmlns:xlink="http://www.w3.org/1999/xlink" x="0px" y="0px"
	 viewBox="0 0 104 36" style="enable-background:new 0 0 104 36;" xml:space="preserve">
<style type="text/css">
	.st0{fill:#006EB6;}
	.st1{fill:#6D6C6C;}
</style>
<path class="st0" d="M25.5,11.5L21.8,0.3h-2.1l4.7,14.3l-0.8,2.6L18.1,0.3H16l6,18.5h6.6l4.8-13.9h6v13.9h5.5V4.9h4.8l1.5-4.6h-22
	L25.5,11.5z M56.6,11H65V7.2h-8.4V4.3h9.1V0.3h-13l-1.5,4.6v13.9h14.8v-4.2h-9.3V11z M78.6,13.9c-0.5,0.6-1.3,0.9-2.4,0.9
	c-1.1,0-1.9-0.4-2.5-1.1c-0.6-0.8-0.9-2.2-0.9-4.2c0-1.7,0.2-2.9,0.7-3.6c0.7-1,1.6-1.6,2.8-1.6c0.5,0,1,0.1,1.5,0.4
	c0.4,0.2,0.8,0.6,1.1,1c0.2,0.3,0.4,0.7,0.5,1.2l4.8-1.1c-0.6-2-1.6-3.4-2.8-4.3c-1.3-0.9-3-1.4-5.2-1.4c-2.8,0-5,0.8-6.6,2.5
	c-1.6,1.6-2.3,4-2.3,7c0,2.3,0.4,4.2,1.3,5.6c0.9,1.5,1.9,2.5,3.1,3.1c1.2,0.6,2.8,0.9,4.7,0.9c1.6,0,2.9-0.2,3.9-0.7
	c1-0.5,1.9-1.2,2.6-2.1c0.7-0.9,1.2-2.1,1.5-3.5l-4.8-1.5C79.5,12.4,79.1,13.3,78.6,13.9z M97.8,0.3v6.5H92V0.3h-5.5v18.5H92v-7.5
	h5.9v7.5h5.5V0.3H97.8z M7.7,0.3L1.2,18.8h6.8l0.9-3.1H15l-1.2-4h-3.7l2.7-9.2L18,18.8h2.2l-6-18.5H7.7z"/>
<g>
	<path class="st1" d="M9.1,25.9c0,0.2-0.1,0.3-0.2,0.5c-0.1,0.1-0.3,0.2-0.5,0.2c-0.2,0-0.3,0-0.4-0.1c-0.1-0.1-0.4-0.1-0.7-0.1
		c-0.2,0-0.5,0-0.8,0c-0.2,1.1-1.1,3.5-2.8,7.2c1.4-0.2,2.5-0.5,3.2-0.8c0.1-0.1,0.2-0.1,0.3-0.1c0.2,0,0.3,0.1,0.5,0.2
		C7.9,33,8,33.1,8,33.3c0,0.3-0.1,0.5-0.3,0.6c-0.5,0.3-1.4,0.6-2.8,0.9c-1.2,0.2-2.2,0.3-3,0.3c-1.3,0-1.9-0.3-1.9-1
		c0-0.2,0.1-0.5,0.3-0.7C0.5,33.1,0.7,33,1,33c0.5,0,0.7,0.2,0.7,0.7h0.2h0.4c0.8-1.9,1.4-3.1,1.5-3.6c0.6-1.4,1-2.6,1.3-3.6
		c-0.7,0.1-1.2,0.1-1.7,0.1c-1.8,0-2.7-0.4-2.7-1.2c0-0.2,0.1-0.3,0.2-0.5c0.1-0.1,0.3-0.2,0.5-0.2c0.2,0,0.4,0.1,0.6,0.3
		c0.1,0.1,0.6,0.2,1.3,0.2c0.4,0,1.1,0,2-0.1C6.2,25,6.8,25,7.2,25C8.5,25,9.1,25.3,9.1,25.9z M8,26.4L8,26.4L8,26.4L8,26.4z"/>
	<path class="st1" d="M14.9,32c0,0.5-0.4,1.6-1.1,3.2c-0.1,0.3-0.3,0.5-0.7,0.5c-0.2,0-0.3-0.1-0.5-0.2c-0.1-0.1-0.2-0.3-0.2-0.5
		c0-0.1,0.2-0.5,0.5-1.3c0.3-0.7,0.5-1.2,0.5-1.5c-0.7,0.3-1.7,1.1-3.2,2.3c-0.1,0.1-0.3,0.2-0.4,0.2c-0.2,0-0.3-0.1-0.5-0.2
		c-0.1-0.1-0.2-0.3-0.2-0.5c0-0.1,0.3-0.7,0.8-1.6c0.5-1,0.8-1.6,1-1.7c0.1-0.2,0.3-0.2,0.5-0.2c0.2,0,0.3,0.1,0.5,0.2
		c0.1,0.1,0.2,0.3,0.2,0.5c0,0.1,0,0.3-0.1,0.4c0.8-0.5,1.4-0.8,1.9-0.8C14.6,30.8,14.9,31.2,14.9,32z"/>
	<path class="st1" d="M21,32c0,0.5-0.4,1.6-1.1,3.2c-0.1,0.3-0.3,0.5-0.7,0.5c-0.2,0-0.3-0.1-0.5-0.2c-0.1-0.1-0.2-0.3-0.2-0.5
		c0-0.1,0.2-0.5,0.5-1.3c0.3-0.7,0.5-1.2,0.5-1.5c-0.7,0.3-1.7,1.1-3.2,2.3c-0.1,0.1-0.3,0.2-0.4,0.2c-0.2,0-0.3-0.1-0.5-0.2
		c-0.1-0.1-0.2-0.3-0.2-0.5c0-0.1,0.3-0.7,0.8-1.6c0.5-1,0.8-1.6,1-1.7c0.1-0.2,0.3-0.2,0.5-0.2c0.2,0,0.3,0.1,0.5,0.2
		c0.1,0.1,0.2,0.3,0.2,0.5c0,0.1,0,0.3-0.1,0.4c0.8-0.5,1.4-0.8,1.9-0.8C20.7,30.8,21,31.2,21,32z"/>
	<path class="st1" d="M26.1,33.2c0,0.7-0.2,1.2-0.7,1.5c-0.4,0.4-1,0.5-1.7,0.5c-0.5,0-1-0.1-1.4-0.3c-0.6-0.3-0.8-0.6-0.8-1.1
		c0-0.5,0.4-1.1,1.3-2.1c0.9-0.9,1.4-1.4,1.8-1.4c0.4,0,0.8,0.4,1.1,1.1C26,32.2,26.1,32.7,26.1,33.2z M24.7,33.2
		c0-0.3-0.1-0.6-0.3-1c-0.4,0.4-0.6,0.6-0.8,0.7c-0.3,0.3-0.5,0.6-0.7,0.8c0.2,0.1,0.5,0.1,0.8,0.1C24.4,33.9,24.7,33.6,24.7,33.2z"
		/>
	<path class="st1" d="M31.9,30.4c0,0.6-0.6,1.6-1.7,3.1c-1.1,1.5-1.9,2.2-2.4,2.2c-0.5,0-0.7-0.2-0.7-0.7c0-0.3,0-0.6,0.1-1.1
		c0-0.5,0.1-0.9,0.1-1.1c0-0.8-0.1-1.4-0.2-1.9c0-0.1,0-0.1,0-0.2c0-0.2,0.1-0.3,0.2-0.5c0.1-0.1,0.3-0.2,0.5-0.2
		c0.7,0,1,1.1,0.9,3.4c1.3-1.5,1.9-2.5,2-3c0-0.5,0.3-0.7,0.7-0.7c0.2,0,0.3,0.1,0.5,0.2C31.8,30.1,31.9,30.3,31.9,30.4z"/>
	<path class="st1" d="M36.2,31.7c0,0.5-0.2,0.7-0.5,0.8v0.1c0,0.1,0,0.2,0,0.4c0,0.2,0,0.3,0,0.4c0,0.4,0.1,0.7,0.3,0.9
		c0.2,0.2,0.3,0.4,0.3,0.6c0,0.2-0.1,0.3-0.2,0.5c-0.1,0.1-0.3,0.2-0.4,0.2c-0.4,0-0.8-0.3-1-1c-0.4,0.4-0.9,0.6-1.3,0.6
		c-0.8,0-1.2-0.4-1.2-1.2c0-0.6,0.3-1.4,1-2.4c0.7-1.1,1.3-1.6,2-1.6c0.4,0,0.8,0.2,1,0.6C36.1,30.9,36.2,31.3,36.2,31.7z M35,31.9
		v-0.3c0-0.2,0-0.3-0.1-0.4c-0.2,0.1-0.5,0.5-0.9,1.1c-0.4,0.6-0.6,1-0.7,1.3c0.3-0.1,0.6-0.4,0.9-0.9C34.6,32.2,34.8,32,35,31.9z"
		/>
	<path class="st1" d="M44.7,30.7c0,0.5-0.6,0.9-1.7,1.2c-0.4,0.1-1.1,0.2-2.2,0.3c-0.3,0.7-0.6,1.6-0.9,2.7v0.1c0,0.2,0,0.3-0.2,0.5
		c-0.1,0.1-0.3,0.2-0.5,0.2c-0.5,0-0.7-0.2-0.7-0.7c0-0.4,0.3-1.2,0.8-2.5c-1,0.1-1.6,0.1-1.8,0.1c-0.5,0-0.7-0.2-0.7-0.7
		c0-0.4,0.2-0.7,0.7-0.7c0.6,0,1.4-0.1,2.5-0.1c0.4-0.9,0.7-1.7,1.1-2.6c0.6-1.4,0.9-2.2,0.9-2.5c0-0.4,0.3-0.7,0.7-0.7
		c0.2,0,0.3,0.1,0.5,0.2c0.1,0.1,0.2,0.3,0.2,0.5c0,0.4-0.6,2-1.8,4.9c0.6-0.1,1.3-0.2,2.1-0.4c0.1-0.2,0.3-0.3,0.5-0.3
		c0.2,0,0.3,0.1,0.5,0.2C44.6,30.3,44.7,30.5,44.7,30.7z"/>
	<path class="st1" d="M46,31.1c0,0.3-0.1,0.8-0.4,1.5c-0.3,0.7-0.4,1.2-0.4,1.5c0,0.2-0.1,0.3-0.2,0.5c-0.1,0.1-0.3,0.2-0.5,0.2
		c-0.5,0-0.7-0.3-0.7-0.8c0-0.4,0.1-0.9,0.4-1.5c0.2-0.6,0.4-1.1,0.4-1.4c0-0.4,0.3-0.7,0.7-0.7c0.2,0,0.4,0.1,0.5,0.2
		C45.9,30.8,46,30.9,46,31.1z M47.6,29.3c0,0.2-0.1,0.4-0.3,0.6c-0.2,0.2-0.4,0.3-0.6,0.3c-0.3,0-0.5-0.1-0.8-0.3
		c-0.3-0.2-0.4-0.5-0.4-0.7c0-0.2,0.1-0.3,0.2-0.5c0.1-0.1,0.3-0.2,0.5-0.2c0.2,0,0.4,0.1,0.5,0.2c0.1,0,0.2,0,0.2,0
		c0.2,0,0.3,0.1,0.5,0.2C47.6,29,47.6,29.2,47.6,29.3z"/>
	<path class="st1" d="M51.4,33.2c0,0.7-0.2,1.2-0.7,1.5c-0.4,0.4-1,0.5-1.7,0.5c-0.5,0-1-0.1-1.4-0.3c-0.6-0.3-0.8-0.6-0.8-1.1
		c0-0.5,0.4-1.1,1.3-2.1c0.9-0.9,1.4-1.4,1.8-1.4c0.4,0,0.8,0.4,1.1,1.1C51.3,32.2,51.4,32.7,51.4,33.2z M50.1,33.2
		c0-0.3-0.1-0.6-0.3-1c-0.4,0.4-0.6,0.6-0.8,0.7c-0.3,0.3-0.5,0.6-0.7,0.8c0.2,0.1,0.5,0.1,0.8,0.1C49.7,33.9,50.1,33.6,50.1,33.2z"
		/>
	<path class="st1" d="M57.7,32c0,0.5-0.4,1.6-1.1,3.2c-0.1,0.3-0.3,0.5-0.7,0.5c-0.2,0-0.3-0.1-0.5-0.2c-0.1-0.1-0.2-0.3-0.2-0.5
		c0-0.1,0.2-0.5,0.5-1.3c0.3-0.7,0.5-1.2,0.5-1.5c-0.7,0.3-1.7,1.1-3.2,2.3c-0.1,0.1-0.3,0.2-0.4,0.2c-0.2,0-0.3-0.1-0.5-0.2
		c-0.1-0.1-0.2-0.3-0.2-0.5c0-0.1,0.3-0.7,0.8-1.6c0.5-1,0.8-1.6,1-1.7c0.1-0.2,0.3-0.2,0.5-0.2c0.2,0,0.3,0.1,0.5,0.2
		c0.1,0.1,0.2,0.3,0.2,0.5c0,0.1,0,0.3-0.1,0.4c0.8-0.5,1.4-0.8,1.9-0.8C57.4,30.8,57.7,31.2,57.7,32z"/>
	<path class="st1" d="M66.5,28c0,0.3-0.1,0.5-0.4,0.6c-0.5,0.2-0.8,0.4-0.9,0.5c-0.4,0.3-0.6,0.8-0.7,1.4c-0.1,0.5-0.2,0.9-0.3,1.3
		c0,0,0.1,0,0.2,0c0.1,0,0.2,0,0.2,0c0.2,0,0.3,0.1,0.4,0.2c0.1,0.1,0.2,0.3,0.2,0.5c0,0.4-0.2,0.6-0.6,0.7c-0.2,0-0.5,0-1,0
		C62.7,35,62,36,61.4,36c-0.2,0-0.3-0.1-0.4-0.2c-0.1-0.1-0.2-0.3-0.2-0.5c0-0.2,0.1-0.4,0.3-0.6c0.3-0.3,0.7-0.9,1.2-1.9
		c-0.5-0.1-0.8-0.2-0.9-0.2c-0.4-0.1-0.5-0.4-0.5-0.7c0-0.2,0.1-0.3,0.2-0.5c0.1-0.1,0.3-0.2,0.4-0.2c0.1,0,0.2,0,0.3,0.1
		c0.1,0,0.5,0.1,1.1,0.2c0.2-0.4,0.3-0.9,0.4-1.4c0.1-0.7,0.4-1.3,0.9-1.9c0.5-0.7,1.1-1,1.8-1c0.2,0,0.3,0.1,0.5,0.2
		C66.4,27.6,66.5,27.8,66.5,28z"/>
	<path class="st1" d="M70.2,33.2c0,0.7-0.2,1.2-0.7,1.5c-0.4,0.4-1,0.5-1.7,0.5c-0.5,0-1-0.1-1.4-0.3c-0.6-0.3-0.8-0.6-0.8-1.1
		c0-0.5,0.4-1.1,1.3-2.1c0.9-0.9,1.4-1.4,1.8-1.4c0.4,0,0.8,0.4,1.1,1.1C70.1,32.2,70.2,32.7,70.2,33.2z M68.9,33.2
		c0-0.3-0.1-0.6-0.3-1c-0.4,0.4-0.6,0.6-0.8,0.7c-0.3,0.3-0.5,0.6-0.7,0.8c0.2,0.1,0.5,0.1,0.8,0.1C68.5,33.9,68.9,33.6,68.9,33.2z"
		/>
	<path class="st1" d="M76.4,32.1c0,0.5-0.2,0.7-0.6,0.7c-0.4,0-0.6-0.2-0.7-0.5C75.1,32,75,31.7,75,31.4c-0.5,0.2-1,0.7-1.6,1.6
		c-0.4,0.7-0.8,1.4-1.2,2c-0.1,0.2-0.3,0.3-0.6,0.3c-0.2,0-0.3-0.1-0.5-0.2c-0.1-0.1-0.2-0.3-0.2-0.5c0-0.2,0.4-1.2,1.2-2.9
		c0.1-0.3,0.3-0.4,0.6-0.4c0.1,0,0.1,0,0.2,0c0.9-0.9,1.6-1.3,2.2-1.3c0.5,0,0.8,0.2,1.1,0.7C76.3,31.1,76.4,31.5,76.4,32.1z"/>
	<path class="st1" d="M85.9,27.4c0,0.2-0.1,0.4-0.2,0.5c-0.2,0.2-1,1.5-2.3,3.7c-1.1,1.9-1.9,2.8-2.4,2.8c-0.3,0-0.6-0.2-0.7-0.5
		c-0.1-0.3-0.3-1.8-0.4-4.4c0-0.6,0-1.4-0.1-2.5c0-0.1,0-0.1,0-0.2c0-0.2,0.1-0.3,0.2-0.5c0.1-0.1,0.3-0.2,0.5-0.2
		c0.3,0,0.5,0.2,0.7,0.5c0.1,0.2,0.1,1,0.2,2.5c0,1,0.1,1.9,0.1,2.9c0.6-1,1.2-1.9,1.7-2.9c0.9-1.5,1.5-2.3,1.7-2.4
		c0.1-0.1,0.3-0.1,0.4-0.1c0.2,0,0.3,0.1,0.5,0.2C85.8,27.1,85.9,27.3,85.9,27.4z M85.6,28L85.6,28L85.6,28z"/>
	<path class="st1" d="M87.7,31.1c0,0.3-0.1,0.8-0.4,1.5c-0.3,0.7-0.4,1.2-0.4,1.5c0,0.2-0.1,0.3-0.2,0.5c-0.1,0.1-0.3,0.2-0.5,0.2
		c-0.5,0-0.7-0.3-0.7-0.8c0-0.4,0.1-0.9,0.4-1.5c0.2-0.6,0.4-1.1,0.4-1.4c0-0.4,0.3-0.7,0.7-0.7c0.2,0,0.4,0.1,0.5,0.2
		C87.6,30.8,87.7,30.9,87.7,31.1z M89.3,29.3c0,0.2-0.1,0.4-0.3,0.6c-0.2,0.2-0.4,0.3-0.6,0.3c-0.3,0-0.5-0.1-0.8-0.3
		c-0.3-0.2-0.4-0.5-0.4-0.7c0-0.2,0.1-0.3,0.2-0.5c0.1-0.1,0.3-0.2,0.5-0.2c0.2,0,0.4,0.1,0.5,0.2c0.1,0,0.2,0,0.2,0
		c0.2,0,0.3,0.1,0.5,0.2C89.2,29,89.3,29.2,89.3,29.3z"/>
	<path class="st1" d="M94.8,28.9c0,0.9-0.5,2-1.4,3.4c-0.1,0.4-0.1,0.8-0.1,1.1c0,0.3,0.1,0.6,0.2,0.9c0.1,0.3,0.2,0.5,0.2,0.6
		c0,0.2-0.1,0.3-0.2,0.5c-0.1,0.1-0.3,0.2-0.5,0.2c-0.5,0-0.9-0.6-1-1.7c-1.1,1.2-2,1.7-2.6,1.7c-0.3,0-0.5-0.1-0.7-0.3
		c-0.2-0.2-0.3-0.5-0.3-0.8c0-0.6,0.4-1.3,1.1-2.1c0.7-0.9,1.4-1.3,1.9-1.3c0.4,0,0.7,0.2,0.7,0.6c0.1-0.8,0.3-1.5,0.6-2.2
		c0.4-1.1,0.8-1.7,1.3-1.7C94.6,27.8,94.8,28.1,94.8,28.9z M91.5,32.5h-0.1c-0.8,0.3-1.3,0.8-1.5,1.5c0.2,0,0.5-0.2,0.8-0.6
		C91,33.1,91.3,32.8,91.5,32.5z"/>
	<path class="st1" d="M99.4,30.7c0,0.7-0.4,1.3-1.2,1.8c-0.6,0.4-1.3,0.6-2.2,0.7c0.2,1,0.7,1.4,1.4,1.4c0,0,0.1,0,0.2,0
		c0.1,0,0.2,0,0.2,0c0.2,0,0.3,0.1,0.4,0.2c0.1,0.1,0.2,0.3,0.2,0.5c0,0.5-0.3,0.7-1,0.7c-0.8,0-1.5-0.4-2-1.1
		c-0.5-0.7-0.7-1.4-0.7-2.2c0-0.8,0.3-1.6,1-2.2c0.7-0.6,1.4-0.9,2.3-0.9c0.4,0,0.7,0.1,1,0.3C99.3,30,99.4,30.3,99.4,30.7z
		 M98.1,30.9c-0.7,0-1.3,0.3-1.7,0.8C97.2,31.5,97.8,31.3,98.1,30.9z"/>
	<path class="st1" d="M104,33.2c0,0.7-0.2,1.2-0.7,1.5c-0.4,0.4-1,0.5-1.7,0.5c-0.5,0-1-0.1-1.4-0.3c-0.6-0.3-0.8-0.6-0.8-1.1
		c0-0.5,0.4-1.1,1.3-2.1c0.9-0.9,1.4-1.4,1.8-1.4c0.4,0,0.8,0.4,1.1,1.1C103.9,32.2,104,32.7,104,33.2z M102.7,33.2
		c0-0.3-0.1-0.6-0.3-1c-0.4,0.4-0.6,0.6-0.8,0.7c-0.3,0.3-0.5,0.6-0.7,0.8c0.2,0.1,0.5,0.1,0.8,0.1
		C102.3,33.9,102.7,33.6,102.7,33.2z"/>
</g>
</svg>
